<svg width="272" height="104" viewBox="0 0 272 104" fill="none" xmlns="http://www.w3.org/2000/svg">
<path d="M138.644 97.7432H136.854L133.254 93.5904V97.7432H131.752V89.0101H133.254V92.927L136.726 89.0101H138.515L134.823 93.2661L138.649 97.7432H138.644Z" fill="#B48C45"/>
<path d="M145.942 89.015H147.459L144.625 95.5022C143.931 97.0896 142.804 97.8366 141.246 97.7481V96.4163C141.76 96.4654 142.177 96.3917 142.491 96.1902C142.81 95.9887 143.062 95.6594 143.257 95.1926L140.218 89.02H141.73L143.951 93.6248L145.947 89.02L145.942 89.015Z" fill="#B48C45"/>
<path d="M156.659 97.7432H154.947L152.936 94.5881L150.925 97.7432H149.213L152.082 93.2513L149.382 89.0101H151.079L152.931 91.9146L154.782 89.0101H156.495L153.795 93.2513L156.654 97.7432H156.659Z" fill="#B48C45"/>
<path d="M164.621 89.015H166.123V97.7481H164.621V93.9689H160.707V97.7481H159.205V89.015H160.707V92.5977H164.621V89.015Z" fill="#B48C45"/>
<path d="M174.871 97.7432V91.8163L170.561 97.7432H169.383V89.0101H170.885V94.937L175.195 89.0101H176.367V97.7432H174.865H174.871Z" fill="#B48C45"/>
<path d="M189.621 89.015H191.122V97.7481H189.621V93.9689H185.707V97.7481H184.205V89.015H185.707V92.5977H189.621V89.015Z" fill="#B48C45"/>
<path d="M200.338 97.7432L199.701 95.9838H195.813L195.175 97.7432H193.545L196.862 89.0101H198.662L201.964 97.7432H200.344H200.338ZM196.306 94.6372H199.207L197.757 90.6958L196.306 94.6372Z" fill="#B48C45"/>
<path d="M213.592 93.2169C214.523 93.6396 214.991 94.3423 214.991 95.3252C214.991 96.0919 214.687 96.7111 214.085 97.1878C213.479 97.6645 212.692 97.9054 211.715 97.9054C210.043 97.9054 208.937 97.2321 208.397 95.8855L209.688 95.1729C209.956 96.0968 210.635 96.5588 211.709 96.5588C212.285 96.5588 212.723 96.4408 213.026 96.2049C213.329 95.969 213.484 95.6496 213.484 95.2515C213.484 94.8535 213.34 94.5487 213.047 94.3079C212.753 94.072 212.342 93.9541 211.812 93.9541H210.701V92.6567H211.509C212.023 92.6567 212.424 92.5436 212.707 92.3176C212.99 92.0915 213.139 91.7917 213.139 91.4182C213.139 91.0447 213.011 90.7449 212.748 90.5287C212.486 90.3125 212.111 90.1994 211.627 90.1994C210.722 90.1994 210.115 90.5926 209.801 91.3838L208.521 90.6712C209.112 89.4573 210.146 88.8479 211.627 88.8479C212.522 88.8479 213.252 89.0789 213.808 89.5409C214.363 90.0028 214.641 90.6024 214.641 91.3445C214.641 92.1701 214.286 92.7943 213.581 93.2169H213.592Z" fill="#B48C45"/>
<path d="M223.682 97.7432L223.044 95.9838H219.156L218.519 97.7432H216.888L220.206 89.0101H222.006L225.307 97.7432H223.687H223.682ZM219.65 94.6372H222.551L221.1 90.6958L219.65 94.6372Z" fill="#B48C45"/>
<path d="M234.606 97.7432H232.816L229.216 93.5904V97.7432H227.714V89.0101H229.216V92.927L232.687 89.0101H234.477L230.785 93.2661L234.611 97.7432H234.606Z" fill="#B48C45"/>
<path d="M243.169 97.7432L242.531 95.9838H238.643L238.005 97.7432H236.375L239.692 89.0101H241.492L244.794 97.7432H243.174H243.169ZM239.137 94.6372H242.037L240.587 90.6958L239.137 94.6372Z" fill="#B48C45"/>
<path d="M251.85 93.2169C252.781 93.6396 253.249 94.3423 253.249 95.3252C253.249 96.0919 252.945 96.7111 252.344 97.1878C251.737 97.6645 250.95 97.9054 249.973 97.9054C248.301 97.9054 247.196 97.2321 246.656 95.8855L247.947 95.1729C248.214 96.0968 248.893 96.5588 249.968 96.5588C250.544 96.5588 250.981 96.4408 251.284 96.2049C251.588 95.969 251.742 95.6496 251.742 95.2515C251.742 94.8535 251.598 94.5487 251.305 94.3079C251.012 94.072 250.6 93.9541 250.071 93.9541H248.96V92.6567H249.767C250.281 92.6567 250.683 92.5436 250.965 92.3176C251.248 92.0915 251.397 91.7917 251.397 91.4182C251.397 91.0447 251.269 90.7449 251.007 90.5287C250.744 90.3125 250.369 90.1994 249.885 90.1994C248.98 90.1994 248.373 90.5926 248.06 91.3838L246.779 90.6712C247.371 89.4573 248.404 88.8479 249.885 88.8479C250.78 88.8479 251.511 89.0789 252.066 89.5409C252.621 90.0028 252.899 90.6024 252.899 91.3445C252.899 92.1701 252.544 92.7943 251.84 93.2169H251.85Z" fill="#B48C45"/>
<path d="M47.7322 77.5397C30.9457 77.5397 49.5168 38.4792 49.5168 38.4792C64.0302 6.24015 58.0798 1.55172 56.4546 0.156002C56.4546 0.156002 69.1885 -2.08992 69.1885 10.4617C69.1885 21.7012 58.9181 40.9365 58.9181 40.9365C58.9181 40.9365 48.0665 65.0863 53.4975 65.0863C58.9284 65.0863 63.6805 56.7071 63.6805 56.7071L67.2599 54.2449C67.2599 54.2449 60.7027 77.5348 47.7271 77.5348L47.7322 77.5397Z" fill="white"/>
<path d="M62.8216 63.6661C62.8216 52.6625 73.2823 26.311 89.2614 26.311C105.24 26.311 94.1163 57.3116 74.9743 57.3116H74.8098C74.3212 61.3415 74.1206 65.0864 77.767 65.0864C84.9876 65.0864 93.4735 55.7832 98.1124 48.7063H100.936C100.936 48.7063 88.0425 77.5348 73.2 77.5348C66.7919 77.5348 62.8216 72.4974 62.8216 63.6661ZM76.0286 52.0433C76.1932 52.0433 76.2704 51.9646 76.4349 51.9646C82.1899 51.9646 93.7203 34.4494 89.0968 34.4494C85.9339 34.4494 78.7852 43.8262 76.0286 52.0433Z" fill="white"/>
<path d="M118.129 26.3159C123.642 26.3159 127.453 29.3383 128.024 38.0959C129.16 37.0098 130.863 36.081 133.46 36.081C136.54 36.081 137.517 39.4917 137.517 39.4917C122.86 56.1518 124.408 103.488 98.0764 103.488C83.599 103.488 86.5356 84.2381 89.21 81.6777C89.21 81.6777 91.0768 90.8383 99.0227 90.8383C109.941 90.8383 116.519 69.4652 118.314 60.7714C115.233 66.6639 111.592 77.5348 102.011 77.5348C97.1815 77.5348 94.3014 72.576 94.3014 66.5312C94.3014 51.4978 106.295 26.311 118.134 26.311L118.129 26.3159ZM107.385 65.0913C112.981 65.0913 123.153 39.413 123.153 39.413C123.153 39.413 123.56 33.5992 120.638 33.5992C113.001 33.5992 98.1381 65.0913 107.385 65.0913Z" fill="white"/>
<path d="M203.429 38.3416C204.16 37.1769 204.772 35.4961 204.108 35.5354C200.467 35.7369 185.455 56.5351 179.047 76.3749L178.964 76.6845C173.127 76.6845 171.111 74.3207 171.111 68.6641C171.111 56.4171 188.026 39.3835 184.622 26.365C184.622 26.365 193.318 23.6768 193.318 34.6017C193.318 36.4594 193.154 38.2433 192.83 39.7914C198.507 32.3508 204.751 26.306 210.022 26.306C213.751 26.306 217.809 30.3359 213.021 40.8775C213.021 40.8775 201.058 66.5951 205.682 66.5951C211.277 66.5951 216.935 51.5862 216.935 51.5862L220.967 48.7063C220.967 48.7063 213.797 76.6354 200.899 76.6354C179.813 76.6354 203.419 38.3416 203.419 38.3416H203.429Z" fill="white"/>
<path d="M157.626 26.3159C164.276 26.3159 165.819 32.8276 166.544 37.7077C171.559 35.9483 172.705 40.4991 172.705 40.4991C170.252 43.0497 161.016 66.3641 166.205 66.3641C170.643 66.3641 173.986 58.0832 173.986 58.0832L181.304 48.7112C181.304 48.7112 173.029 76.6895 161.597 76.6895C155.271 76.6895 154.217 70.7233 155.189 63.4351C151.136 70.566 145.864 77.5397 140.835 77.5397C121.127 77.5397 141.483 26.3159 157.621 26.3159H157.626ZM146.343 65.0912C151.697 65.0912 159.57 46.5439 162.085 39.9536C162.25 39.7226 162.327 39.4867 162.409 39.2557C162.327 36.3906 161.761 33.5991 159.73 33.5991C153.728 33.5991 138.474 65.0912 146.338 65.0912H146.343Z" fill="white"/>
<path d="M254.385 60.3144C253.429 62.0836 250.765 66.3592 247.252 66.3592C242.058 66.3592 251.3 43.0497 253.748 40.4942C253.748 40.4942 252.596 35.9483 247.581 37.7077C246.856 32.8227 245.313 26.311 238.658 26.311C222.525 26.311 202.169 77.5397 221.877 77.5397C226.902 77.5397 232.173 70.5611 236.231 63.44C235.254 70.7233 236.318 76.6895 242.639 76.6895C248.178 76.6895 253.66 68.0105 257.43 60.3193H254.385V60.3144ZM243.122 39.9536C240.608 46.539 232.729 65.0863 227.385 65.0863C219.516 65.0863 234.775 33.5943 240.767 33.5943C242.798 33.5943 243.364 36.3906 243.452 39.2508C243.364 39.4867 243.292 39.7177 243.122 39.9536Z" fill="white"/>
<path d="M0.041875 63.5186C-0.559848 53.3063 5.27738 42.2683 20.5262 40.2976C5.06652 33.8842 11.8603 13.8281 28.1943 12.9288C43.7568 12.0736 50.4683 23.5932 44.1425 29.8592C40.2956 33.6729 32.2623 29.1958 35.6567 24.2567C41.8487 15.2484 18.1553 17.917 21.9868 31.884C23.2571 36.5134 27.5154 37.1671 30.272 38.0812C32.8229 38.9265 33.6098 41.3984 33.2138 43.4675C18.9061 43.5707 12.0403 51.4928 11.562 58.5304C11.2072 63.7103 15.4964 66.428 19.0399 66.428C32.7303 66.428 33.2241 54.1467 33.2241 54.1467C33.2241 54.1467 37.3538 55.5178 37.1584 60.0883C36.747 69.7649 27.9731 77.5348 16.8387 77.5348C7.81799 77.5348 0.581883 72.7284 0.041875 63.5186Z" fill="white"/>
<path d="M257.574 0.436127H257.281C257.281 8.04868 250.821 14.2311 242.855 14.2311V14.4965C250.821 14.4965 257.281 20.674 257.281 28.2964H257.574C257.574 20.674 264.034 14.4965 272 14.4965V14.2311C264.034 14.2311 257.574 8.0536 257.574 0.436127Z" fill="#B48C45"/>
</svg>
