<svg width="303" height="82" viewBox="0 0 303 82" fill="none" xmlns="http://www.w3.org/2000/svg">
<path d="M23.166 5.504L13.959 14.777L24.024 29H17.556L10.428 18.44L7.425 21.41V29H2.343V5.504H7.425V15.272L16.665 5.504H23.166ZM30.4814 28.901V24.545C31.3174 24.897 32.1424 25.073 32.9564 25.073C33.7044 25.073 34.2874 24.886 34.7054 24.512C35.1234 24.116 35.3324 23.632 35.3324 23.06C35.3324 22.862 35.3104 22.664 35.2664 22.466C35.2224 22.268 35.1564 22.048 35.0684 21.806C34.9804 21.564 34.9034 21.377 34.8374 21.245C34.7714 21.091 34.6614 20.871 34.5074 20.585C34.3754 20.299 34.2874 20.112 34.2434 20.024L27.3464 5.504H33.0554L38.3684 17.879L43.5824 5.504H49.0934L41.1734 22.796C40.0514 25.26 38.9294 26.987 37.8074 27.977C36.6854 28.945 35.2004 29.429 33.3524 29.429C32.3184 29.429 31.3614 29.253 30.4814 28.901ZM73.9092 5.504L66.3522 16.724L74.6022 29H68.4312L63.2832 20.849L58.0692 29H52.1952L60.4782 16.724L52.8222 5.504H58.8282L63.5142 13.061L68.2332 5.504H73.9092ZM99.9129 5.504V29H94.7649V18.869H85.1619V29H80.0139V5.504H85.1619V14.348H94.7649V5.504H99.9129ZM118.928 19.793L112.064 29H105.596L112.889 19.496C111.261 19.078 109.952 18.297 108.962 17.153C107.994 15.987 107.51 14.502 107.51 12.698C107.51 10.322 108.269 8.529 109.787 7.319C111.327 6.109 113.263 5.504 115.595 5.504H127.112V29H121.997V19.793H118.928ZM121.997 16.064V9.563H116.882C115.562 9.563 114.506 9.783 113.714 10.223C112.944 10.663 112.559 11.499 112.559 12.731C112.559 14.051 112.955 14.942 113.747 15.404C114.561 15.844 115.683 16.064 117.113 16.064H121.997ZM147.374 29V5.504H154.733L160.211 21.641L165.557 5.504H172.751V29H167.9V12.302L162.125 29H158.132L152.291 12.467V29H147.374ZM191.238 4.943C194.67 4.943 197.442 6.087 199.554 8.375C201.688 10.641 202.755 13.611 202.755 17.285C202.755 20.959 201.688 23.929 199.554 26.195C197.442 28.439 194.659 29.561 191.205 29.561C187.729 29.561 184.924 28.439 182.79 26.195C180.656 23.929 179.589 20.959 179.589 17.285C179.589 13.567 180.645 10.586 182.757 8.342C184.891 6.076 187.718 4.943 191.238 4.943ZM191.172 9.167C189.236 9.167 187.685 9.893 186.519 11.345C185.375 12.797 184.803 14.744 184.803 17.186C184.803 19.716 185.375 21.696 186.519 23.126C187.663 24.556 189.236 25.282 191.238 25.304C193.196 25.304 194.736 24.578 195.858 23.126C196.98 21.674 197.541 19.694 197.541 17.186C197.541 14.722 196.969 12.775 195.825 11.345C194.681 9.893 193.13 9.167 191.172 9.167ZM219.115 18.77L212.812 29H206.443L215.848 15.107L207.301 5.504H213.505L221.656 15.107V5.504H226.606V15.107L234.757 5.504H240.961L232.414 15.107L241.819 29H235.417L229.147 18.77L226.606 21.641V29H221.656V21.641L219.115 18.77ZM264.711 5.504V9.728H252.204V14.843H263.688V18.902H252.204V24.677H264.942V29H247.089V5.504H264.711ZM289.245 5.504V9.893H282.183V29H277.002V9.893H269.94V5.504H289.245ZM7.458 54.952H13.596C16.082 54.952 18.095 55.59 19.635 56.866C21.175 58.12 21.945 59.979 21.945 62.443C21.945 64.951 21.164 66.843 19.602 68.119C18.062 69.373 15.972 70 13.332 70H2.343V46.504H19.767V50.761H7.458V54.952ZM16.929 62.377C16.929 60.133 15.587 59.011 12.903 59.011H7.458V65.776H12.936C15.598 65.776 16.929 64.643 16.929 62.377ZM46.5664 62.443C46.5664 64.951 45.7854 66.843 44.2234 68.119C42.6834 69.373 40.5934 70 37.9534 70H28.8124V46.504H33.9274V54.952H38.2174C40.7034 54.952 42.7164 55.59 44.2564 56.866C45.7964 58.12 46.5664 59.979 46.5664 62.443ZM41.5504 62.377C41.5504 60.133 40.2084 59.011 37.5244 59.011H33.9274V65.776H37.5574C40.2194 65.776 41.5504 64.643 41.5504 62.377ZM49.0744 46.504H54.2224V70H49.0744V46.504ZM79.5078 46.504V50.893H72.4458V70H67.2648V50.893H60.2028V46.504H79.5078ZM104.467 62.443C104.467 64.951 103.686 66.843 102.124 68.119C100.584 69.373 98.4937 70 95.8537 70H85.4587V46.504H90.5737V54.952H96.1177C98.6037 54.952 100.617 55.59 102.157 56.866C103.697 58.12 104.467 59.979 104.467 62.443ZM99.4507 62.377C99.4507 60.133 98.1087 59.011 95.4247 59.011H90.5737V65.776H95.4577C98.1197 65.776 99.4507 64.643 99.4507 62.377ZM142.691 46.504V70H137.543V50.893H131.24L130.91 60.859C130.69 67.261 128.512 70.462 124.376 70.462C123.232 70.462 122.264 70.33 121.472 70.066V65.908C122 66.172 122.605 66.304 123.287 66.304C124.101 66.304 124.728 65.941 125.168 65.215C125.608 64.467 125.861 62.993 125.927 60.793L126.323 46.504H142.691ZM169.905 45.943C173.051 45.943 175.603 47.087 177.561 49.375C179.519 51.641 180.498 54.611 180.498 58.285C180.498 61.937 179.519 64.896 177.561 67.162C175.603 69.428 173.04 70.561 169.872 70.561C166.88 70.561 164.416 69.571 162.48 67.591C160.566 65.611 159.488 62.982 159.246 59.704H155.583V70H150.435V46.504H155.583V55.513H159.378C159.862 52.565 161.039 50.233 162.909 48.517C164.779 46.801 167.111 45.943 169.905 45.943ZM173.799 52.312C172.831 50.882 171.511 50.167 169.839 50.167C168.167 50.167 166.836 50.893 165.846 52.345C164.878 53.797 164.394 55.744 164.394 58.186C164.394 60.716 164.878 62.696 165.846 64.126C166.836 65.556 168.189 66.282 169.905 66.304C171.577 66.304 172.886 65.578 173.832 64.126C174.8 62.674 175.284 60.694 175.284 58.186C175.284 55.7 174.789 53.742 173.799 52.312ZM192.496 54.952H198.634C201.12 54.952 203.133 55.59 204.673 56.866C206.213 58.12 206.983 59.979 206.983 62.443C206.983 64.951 206.202 66.843 204.64 68.119C203.1 69.373 201.01 70 198.37 70H187.381V46.504H204.805V50.761H192.496V54.952ZM201.967 62.377C201.967 60.133 200.625 59.011 197.941 59.011H192.496V65.776H197.974C200.636 65.776 201.967 64.643 201.967 62.377ZM224.477 45.943C227.909 45.943 230.681 47.087 232.793 49.375C234.927 51.641 235.994 54.611 235.994 58.285C235.994 61.959 234.927 64.929 232.793 67.195C230.681 69.439 227.898 70.561 224.444 70.561C220.968 70.561 218.163 69.439 216.029 67.195C213.895 64.929 212.828 61.959 212.828 58.285C212.828 54.567 213.884 51.586 215.996 49.342C218.13 47.076 220.957 45.943 224.477 45.943ZM224.411 50.167C222.475 50.167 220.924 50.893 219.758 52.345C218.614 53.797 218.042 55.744 218.042 58.186C218.042 60.716 218.614 62.696 219.758 64.126C220.902 65.556 222.475 66.282 224.477 66.304C226.435 66.304 227.975 65.578 229.097 64.126C230.219 62.674 230.78 60.694 230.78 58.186C230.78 55.722 230.208 53.775 229.064 52.345C227.92 50.893 226.369 50.167 224.411 50.167ZM262.734 46.504V70H257.586V53.698H257.487L248.643 70H242.835V46.504H247.983V62.773H248.082L256.926 46.504H262.734ZM256.332 40.168H258.18C258.18 43.336 256.387 44.92 252.801 44.92C249.215 44.92 247.422 43.336 247.422 40.168H249.27C249.556 41.62 250.733 42.346 252.801 42.346C254.869 42.346 256.046 41.62 256.332 40.168Z" fill="white"/>
<path d="M283.719 45H283.426C283.426 52.6126 276.966 58.795 269 58.795V59.0604C276.966 59.0604 283.426 65.2379 283.426 72.8603H283.719C283.719 65.2379 290.179 59.0604 298.145 59.0604V58.795C290.179 58.795 283.719 52.6175 283.719 45V45Z" fill="#B48C45"/>
</svg>
