<svg width="34" height="34" viewBox="0 0 34 34" fill="none" xmlns="http://www.w3.org/2000/svg">
<path fill-rule="evenodd" clip-rule="evenodd" d="M17.3044 0C8.07851 0 0.608815 7.39836 0.608815 16.5362C0.608815 19.6671 1.49862 22.5894 3.02066 25.0941L0 34L9.27273 31.0314C11.6612 32.3302 14.4008 33.0723 17.3044 33.0723C26.5303 33.0723 34 25.6739 34 16.5362C34 7.39836 26.5303 0 17.3044 0ZM25.0083 22.8677C24.5165 23.4011 23.4394 24.5143 21.4959 24.3984C19.5758 24.2824 16.3444 23.2387 12.9725 19.9454C11.9656 18.9714 10.6074 17.3479 9.55372 15.3533C8.5 13.3588 9.20248 11.4106 9.20248 11.4106C9.20248 11.4106 9.55372 10.2046 10.4435 9.50887C11.0758 9.02183 11.8953 9.02183 12.2934 9.09141C12.5041 9.06821 12.7383 9.1146 12.9256 9.27694C12.9959 9.34652 13.0661 9.4161 13.1129 9.48568L13.1364 9.53206C13.1598 9.55525 13.1598 9.60164 13.1832 9.62483L14.6116 13.0341C14.6818 13.266 14.635 13.5211 14.4711 13.7067C14.5179 13.6603 14.5179 13.6603 14.4477 13.7299L14.4711 13.7067C14.2837 13.9154 13.3237 14.9823 13.3237 14.9823C13.3237 14.9823 12.949 15.3765 13.4408 16.0027C13.9325 16.6057 14.6818 17.603 15.2672 18.1828C15.8526 18.7626 17.2576 19.9686 18.5455 20.4789C19.1777 20.7572 19.5523 20.6876 19.8802 20.3629C20.1846 20.0382 20.9573 18.9482 20.9573 18.9482C20.9573 18.9482 21.3554 18.3452 21.9174 18.6003C22.4793 18.8554 25.1956 20.1542 25.1956 20.1542C25.1956 20.1542 25.5702 20.2469 25.5702 20.6412C25.5937 21.0819 25.5 22.3342 25.0083 22.8677Z" fill="white"/>
</svg>
